<?xml version="1.0" encoding="utf-8"?>
<!-- Generator: Adobe Illustrator 16.0.4, SVG Export Plug-In . SVG Version: 6.00 Build 0)  -->
<!DOCTYPE svg PUBLIC "-//W3C//DTD SVG 1.1//EN" "http://www.w3.org/Graphics/SVG/1.1/DTD/svg11.dtd">
<svg version="1.1" id="Livello_1" xmlns="http://www.w3.org/2000/svg" xmlns:xlink="http://www.w3.org/1999/xlink" x="0px" y="0px"
	 width="39.963px" height="69.764px" viewBox="0 0 39.963 69.764" enable-background="new 0 0 39.963 69.764" xml:space="preserve">
<g>
	<path fill="#263248" d="M20.08,68.51c0.484-9.41,5.668-24.695,13.185-34.314c4.094-5.243,5.979-10.35,5.979-13.449
		C39.245,9.982,30.62,1.255,19.981,1.255l0,0c-10.638,0-19.263,8.727-19.263,19.492c0,3.098,1.884,8.207,5.979,13.449
		C14.213,43.815,19.399,59.1,19.882,68.51H20.08z"/>
	<path fill="#FFFFFF" d="M20.78,69.246h-1.597l-0.036-0.698c-0.467-9.062-5.468-24.221-13.03-33.899
		c-4.523-5.79-6.136-10.978-6.136-13.902c0-11.155,8.972-20.23,20-20.23c11.027,0,20,9.075,20,20.23
		c0,2.925-1.611,8.112-6.135,13.902c-7.561,9.68-12.562,24.837-13.029,33.899L20.78,69.246L20.78,69.246z M19.981,1.991
		c-10.215,0-18.525,8.414-18.525,18.756c0,2.557,1.525,7.494,5.822,12.995c6.424,8.224,11.044,20.316,12.703,29.504
		c1.66-9.188,6.279-21.28,12.704-29.504c4.298-5.501,5.821-10.438,5.821-12.995C38.506,10.404,30.196,1.991,19.981,1.991
		L19.981,1.991z"/>
</g>
<g>
	<path fill="#FFFFFF" d="M19.983,10.882c5.729-0.001,10.644,3.315,12.747,8.039l0.489-0.27c-2.036-5.174-7.028-8.545-13.235-8.545
		c-6.209,0-11.205,3.374-13.238,8.55l0.491,0.27C9.334,14.198,14.251,10.882,19.983,10.882z"/>
	<path fill="#FFFFFF" d="M19.983,16.884c3.813,0,7.087,2.208,8.485,5.351l0.326-0.178c-1.354-3.444-4.68-5.688-8.811-5.688
		c-4.135,0-7.459,2.247-8.813,5.692l0.327,0.179C12.894,19.093,16.167,16.884,19.983,16.884z"/>
	<path fill="#FFFFFF" d="M19.983,22.856c2.373,0,4.408,1.373,5.279,3.329l0.203-0.111c-0.843-2.144-2.913-3.539-5.482-3.539
		c-2.573,0-4.642,1.397-5.483,3.542l0.202,0.112C15.573,24.23,17.609,22.856,19.983,22.856z"/>
</g>
</svg>
