<?xml version="1.0" encoding="utf-8"?>
<!-- Generator: Adobe Illustrator 16.0.4, SVG Export Plug-In . SVG Version: 6.00 Build 0)  -->
<!DOCTYPE svg PUBLIC "-//W3C//DTD SVG 1.1//EN" "http://www.w3.org/Graphics/SVG/1.1/DTD/svg11.dtd">
<svg version="1.1" id="Livello_1" xmlns="http://www.w3.org/2000/svg" xmlns:xlink="http://www.w3.org/1999/xlink" x="0px" y="0px"
	 width="24.309px" height="60.536px" viewBox="0 0 24.309 60.536" enable-background="new 0 0 24.309 60.536" xml:space="preserve">
<g>
	<path fill="#E05038" stroke="#FFFFFF" stroke-width="0.5" stroke-miterlimit="10" d="M10.678,30.282c0,9.431,0,18.862,0,28.292
		c0,0.041-0.002,0.075,0,0.11c0.011,0.086-0.023,0.103-0.152,0.065c-0.344-0.098-0.564-0.283-0.788-0.459
		c-0.508-0.401-0.949-0.836-1.342-1.293c-0.426-0.5-0.812-1.013-1.118-1.547c-0.582-1.02-1.115-2.051-1.617-3.086
		c-0.575-1.201-1.114-2.406-1.601-3.621c-0.28-0.707-0.561-1.412-0.812-2.123c-0.274-0.781-0.518-1.565-0.761-2.351
		c-0.141-0.464-0.276-0.926-0.374-1.39c-0.099-0.473-0.219-0.939-0.31-1.411c-0.08-0.46-0.177-0.919-0.245-1.384
		c-0.065-0.438-0.128-0.877-0.171-1.32c-0.029-0.354-0.056-0.703-0.081-1.057c-0.04-0.506-0.051-1.01-0.09-1.519
		c-0.028-0.346-0.017-0.688-0.028-1.034c-0.101-2.205-0.03-4.411-0.034-6.618c0-0.417-0.006-0.838,0.042-1.256
		c0.033-0.296,0.003-0.59,0.033-0.884c0.045-0.502,0.062-1.008,0.089-1.514c0.02-0.389,0.051-0.778,0.082-1.169
		c0.026-0.353,0.059-0.705,0.085-1.055c0.023-0.304,0.052-0.606,0.082-0.907c0.043-0.401,0.076-0.803,0.124-1.204
		c0.042-0.355,0.08-0.711,0.124-1.065c0.058-0.395,0.102-0.791,0.172-1.185c0.063-0.378,0.121-0.757,0.189-1.137
		c0.062-0.333,0.115-0.668,0.185-1c0.087-0.404,0.18-0.807,0.277-1.207c0.142-0.577,0.341-1.142,0.516-1.714
		c0.141-0.453,0.306-0.906,0.467-1.356c0.256-0.71,0.513-1.417,0.784-2.124c0.203-0.523,0.43-1.043,0.657-1.561
		C5.259,7.748,5.46,7.294,5.685,6.846C5.913,6.395,6.16,5.949,6.413,5.503C6.56,5.255,6.726,5.009,6.9,4.765
		c0.405-0.579,0.835-1.147,1.384-1.673C8.75,2.644,9.28,2.015,9.988,1.719c0.172-0.075,0.347-0.133,0.543-0.168
		c0.103-0.02,0.163-0.249,0.149-0.166c-0.001,0.034-0.002,0.316-0.002,0.353C10.678,11.178,10.678,20.842,10.678,30.282z"/>
	<path fill="#E05038" stroke="#FFFFFF" stroke-width="0.5" stroke-miterlimit="10" d="M13.766,58.72c0-18.979,0-38.377,0-57.352
		c0.433,0.059,0.749,0.449,1.058,0.625c0.38,0.393,1.413,1.34,1.771,1.76c0.454,0.536,0.812,1.099,1.184,1.663
		c0.373,0.573,0.687,1.161,0.959,1.755c0.374,0.819,0.74,1.642,1.07,2.47c0.31,0.764,0.577,1.537,0.848,2.308
		c0.259,0.731,0.518,1.465,0.749,2.201c0.14,0.443,0.229,0.892,0.342,1.337c0.126,0.492,0.209,0.989,0.299,1.486
		c0.058,0.32,0.114,0.64,0.164,0.959c0.066,0.441,0.144,0.88,0.205,1.318c0.038,0.275,0.054,0.549,0.085,0.821
		c0.053,0.437,0.115,0.873,0.165,1.311c0.021,0.163,0.026,0.329,0.037,0.494c0.012,0.247,0.042,0.495,0.061,0.742
		c0.02,0.358,0.051,0.715,0.081,1.072c0.031,0.399,0.056,0.798,0.081,1.195c0.035,0.514,0.049,1.031,0.092,1.544
		c0.021,0.314-0.017,0.627,0.031,0.938c0.066,0.421,0.019,0.847,0.04,1.271c0.097,1.987,0.026,3.978,0.026,5.962
		c0,0.388,0.018,0.775-0.036,1.16c-0.042,0.298-0.008,0.593-0.036,0.886c-0.044,0.438-0.063,0.879-0.086,1.319
		c-0.02,0.439-0.071,0.877-0.124,1.314c-0.043,0.375-0.091,0.754-0.167,1.129c-0.096,0.469-0.177,0.936-0.279,1.401
		c-0.097,0.444-0.199,0.89-0.309,1.33c-0.103,0.419-0.228,0.833-0.354,1.249c-0.154,0.521-0.311,1.037-0.478,1.554
		c-0.123,0.367-0.263,0.736-0.388,1.104c-0.264,0.754-0.575,1.5-0.873,2.248c-0.199,0.51-0.439,1.011-0.66,1.517
		c-0.473,1.071-0.996,2.132-1.547,3.187c-0.387,0.732-0.75,1.477-1.262,2.181c-0.497,0.688-1.067,1.35-1.795,1.944
		c-0.231,0.19-0.451,0.383-0.75,0.524C13.916,58.678,13.86,58.702,13.766,58.72z"/>
</g>
<path fill="none" stroke="#FFFFFF" stroke-width="0.5" stroke-miterlimit="10" d="M23.499,28.577
	c-0.026-0.441,0.032-0.882-0.048-1.32c-0.059-0.324-0.013-0.649-0.04-0.975c-0.053-0.533-0.065-1.069-0.111-1.603
	c-0.031-0.414-0.061-0.828-0.099-1.241c-0.036-0.372-0.075-0.742-0.1-1.113c-0.021-0.258-0.06-0.515-0.074-0.771
	c-0.012-0.172-0.02-0.344-0.044-0.513c-0.061-0.455-0.136-0.907-0.201-1.362c-0.038-0.282-0.056-0.567-0.103-0.853
	c-0.075-0.455-0.172-0.911-0.25-1.368c-0.062-0.333-0.131-0.665-0.2-0.997c-0.106-0.516-0.209-1.031-0.36-1.542
	c-0.139-0.463-0.247-0.929-0.419-1.389c-0.283-0.764-0.597-1.526-0.912-2.286c-0.329-0.801-0.655-1.603-1.031-2.397
	c-0.403-0.86-0.848-1.714-1.303-2.564c-0.333-0.618-0.714-1.228-1.168-1.823c-0.449-0.586-0.886-1.171-1.438-1.728
	c-0.587-0.59-1.239-1.151-2.155-1.595c-0.378-0.183-0.761-0.375-1.288-0.436c0,0.019,0,0.038,0,0.057
	c0.017-0.086-0.053-0.1-0.175-0.079c-0.237,0.036-0.445,0.097-0.653,0.174C10.477,1.16,9.842,1.58,9.282,2.045
	C8.625,2.591,8.109,3.182,7.625,3.783C7.417,4.036,7.216,4.292,7.042,4.551C6.74,5.015,6.442,5.479,6.17,5.947
	C5.9,6.412,5.66,6.884,5.422,7.354C5.153,7.892,4.88,8.432,4.636,8.975c-0.326,0.732-0.634,1.467-0.94,2.205
	c-0.194,0.468-0.391,0.938-0.562,1.408c-0.208,0.593-0.446,1.181-0.616,1.78c-0.117,0.416-0.229,0.835-0.333,1.253
	c-0.083,0.346-0.146,0.694-0.223,1.04c-0.083,0.394-0.149,0.788-0.228,1.181c-0.084,0.409-0.137,0.82-0.206,1.23
	c-0.055,0.369-0.099,0.737-0.149,1.106c-0.059,0.416-0.097,0.834-0.148,1.25c-0.036,0.312-0.071,0.626-0.099,0.941
	c-0.03,0.364-0.07,0.73-0.103,1.096c-0.035,0.405-0.074,0.81-0.099,1.214c-0.031,0.525-0.052,1.05-0.105,1.572
	c-0.036,0.306,0,0.61-0.039,0.918c-0.059,0.435-0.051,0.871-0.051,1.305c0.004,2.291-0.079,4.582,0.04,6.873
	c0.015,0.356,0,0.714,0.035,1.073c0.047,0.525,0.059,1.051,0.105,1.574c0.031,0.366,0.062,0.732,0.1,1.1
	c0.051,0.459,0.126,0.916,0.204,1.371c0.083,0.48,0.197,0.959,0.294,1.436c0.106,0.49,0.252,0.977,0.369,1.467
	c0.119,0.481,0.28,0.961,0.449,1.441c0.292,0.816,0.583,1.632,0.913,2.441c0.303,0.737,0.637,1.471,0.975,2.203
	c0.583,1.264,1.229,2.517,1.919,3.764c0.602,1.076,1.239,2.146,1.938,3.203c0.371,0.557,0.832,1.088,1.343,1.605
	c0.469,0.477,0.997,0.928,1.606,1.344c0.269,0.182,1.142,0.498,1.128,0.408c0,0.012,0.18-0.007,0.246-0.035
	c0.364-0.148,0.631-0.349,0.913-0.546c0.883-0.618,1.578-1.307,2.186-2.021c0.624-0.73,1.063-1.502,1.533-2.264
	c0.673-1.095,1.309-2.197,1.883-3.31c0.271-0.524,0.563-1.045,0.807-1.574c0.362-0.776,0.741-1.552,1.063-2.336
	c0.148-0.382,0.321-0.764,0.471-1.146c0.201-0.535,0.395-1.073,0.58-1.612c0.154-0.433,0.31-0.863,0.434-1.298
	c0.133-0.459,0.258-0.92,0.378-1.381c0.121-0.484,0.222-0.971,0.337-1.457c0.093-0.391,0.152-0.78,0.204-1.172
	c0.062-0.455,0.127-0.908,0.149-1.365c0.026-0.457,0.053-0.914,0.107-1.37c0.033-0.306-0.007-0.61,0.042-0.92
	c0.062-0.399,0.044-0.802,0.044-1.204C23.531,32.706,23.614,30.639,23.499,28.577z"/>
</svg>
